<?xml version="1.0" encoding="UTF-8" standalone="no"?>
<svg
   viewBox="0 0 120 180"
   version="1.1"
   id="svg2"
   sodipodi:docname="reshot-icon-location-v-1.svg"
   inkscape:version="1.4 (86a8ad7, 2024-10-11)"
   inkscape:export-filename="reshot-icon-location-v-1.png"
   inkscape:export-xdpi="757.33331"
   inkscape:export-ydpi="757.33331"
   width="120"
   height="180"
   xmlns:inkscape="http://www.inkscape.org/namespaces/inkscape"
   xmlns:sodipodi="http://sodipodi.sourceforge.net/DTD/sodipodi-0.dtd"
   xmlns="http://www.w3.org/2000/svg"
   xmlns:svg="http://www.w3.org/2000/svg"
   xmlns:rdf="http://www.w3.org/1999/02/22-rdf-syntax-ns#"
   xmlns:cc="http://creativecommons.org/ns#"
   xmlns:dc="http://purl.org/dc/elements/1.1/">
  <defs
     id="defs2" />
  <sodipodi:namedview
     id="namedview2"
     pagecolor="#ffffff"
     bordercolor="#000000"
     borderopacity="0.25"
     inkscape:showpageshadow="2"
     inkscape:pageopacity="0.0"
     inkscape:pagecheckerboard="0"
     inkscape:deskcolor="#d1d1d1"
     inkscape:zoom="3.1835938"
     inkscape:cx="-6.7533741"
     inkscape:cy="76.171778"
     inkscape:window-width="1920"
     inkscape:window-height="1017"
     inkscape:window-x="-8"
     inkscape:window-y="-8"
     inkscape:window-maximized="1"
     inkscape:current-layer="layer1" />
  <title
     id="title1">user location</title>
  <metadata
     id="metadata2">
    <rdf:RDF>
      <cc:Work
         rdf:about="">
        <dc:title>user location</dc:title>
      </cc:Work>
    </rdf:RDF>
  </metadata>
  <g
     inkscape:groupmode="layer"
     id="layer1"
     inkscape:label="Main">
    <ellipse
       style="fill:#ffffff;stroke-width:2.77987"
       id="path2"
       cx="60.239426"
       cy="96.824562"
       rx="42.611603"
       ry="44.781872" />
    <path
       d="m 59.798773,42.948467 c -30.246909,0 -54.7668711,24.048574 -54.7668711,53.713999 0,43.482764 56.4052371,73.159624 56.4052371,73.159624 0,0 53.128511,-29.67686 53.128511,-73.159624 0,-29.665425 -24.519969,-53.713999 -54.766877,-53.713999 z M 87.521241,127.35618 C 72.822364,140.17093 50.994994,141.17981 35.134643,129.77848 19.27447,118.37727 13.688656,97.662347 21.721592,80.05675 29.754528,62.451149 48.611387,51.327683 67.847419,55.330098 c 19.236248,4.002457 33.627411,22.043897 33.678491,41.332368 0.0311,11.726584 -5.068358,22.902864 -14.004669,30.693714 z"
       id="path1"
       sodipodi:nodetypes="sscssssssss"
       style="fill:#0000ff;stroke-width:2.58275" />
  </g>
</svg>
