<?xml version="1.0" encoding="UTF-8" standalone="no"?>
<svg
   viewBox="0 0 120 140"
   version="1.1"
   id="svg2"
   sodipodi:docname="reshot-icon-location-v-1.svg"
   inkscape:version="1.4 (86a8ad7, 2024-10-11)"
   inkscape:export-filename="reshot-icon-location-v-1.png"
   inkscape:export-xdpi="768"
   inkscape:export-ydpi="768"
   width="120"
   height="140"
   xmlns:inkscape="http://www.inkscape.org/namespaces/inkscape"
   xmlns:sodipodi="http://sodipodi.sourceforge.net/DTD/sodipodi-0.dtd"
   xmlns="http://www.w3.org/2000/svg"
   xmlns:svg="http://www.w3.org/2000/svg"
   xmlns:rdf="http://www.w3.org/1999/02/22-rdf-syntax-ns#"
   xmlns:cc="http://creativecommons.org/ns#"
   xmlns:dc="http://purl.org/dc/elements/1.1/">
  <defs
     id="defs2" />
  <sodipodi:namedview
     id="namedview2"
     pagecolor="#ffffff"
     bordercolor="#000000"
     borderopacity="0.25"
     inkscape:showpageshadow="2"
     inkscape:pageopacity="0.0"
     inkscape:pagecheckerboard="0"
     inkscape:deskcolor="#d1d1d1"
     inkscape:zoom="3.1835938"
     inkscape:cx="-6.7533742"
     inkscape:cy="126.11534"
     inkscape:window-width="1920"
     inkscape:window-height="1017"
     inkscape:window-x="-8"
     inkscape:window-y="-8"
     inkscape:window-maximized="1"
     inkscape:current-layer="layer1" />
  <title
     id="title1">user location</title>
  <metadata
     id="metadata2">
    <rdf:RDF>
      <cc:Work
         rdf:about="">
        <dc:title>user location</dc:title>
      </cc:Work>
    </rdf:RDF>
  </metadata>
  <g
     inkscape:groupmode="layer"
     id="layer1"
     inkscape:label="Main">
    <ellipse
       style="fill:#ffffff;stroke-width:2.46319"
       id="path2"
       cx="60.191406"
       cy="66.473618"
       rx="37.968098"
       ry="39.460121" />
    <path
       d="M 59.798773,19 C 32.847954,19 11,40.19071 11,66.330777 c 0,38.315393 50.258602,64.465543 50.258602,64.465543 0,0 47.338948,-26.15015 47.338948,-64.465543 C 108.59755,40.19071 86.749592,19 59.798773,19 Z M 84.500247,93.376936 C 71.403147,104.66882 51.954366,105.55781 37.822362,95.51138 23.690516,85.46506 18.713404,67.21184 25.870968,51.69844 33.028533,36.185039 49.830508,26.383454 66.970336,29.910233 84.110357,33.43705 96.933271,49.334496 96.97879,66.330777 97.006466,76.663814 92.462743,86.511935 84.500247,93.376936 Z"
       id="path1"
       sodipodi:nodetypes="sscssssssss"
       style="fill:#0000ff;stroke-width:2.28853" />
  </g>
</svg>
